<?xml version="1.0" encoding="utf-8"?>
<svg version="1.1" xmlns:xlink="http://www.w3.org/1999/xlink" width="96px" height="78px" xmlns="http://www.w3.org/2000/svg">
  <defs>
    <filter x="1536px" y="41px" width="96px" height="78px" filterUnits="userSpaceOnUse" id="filter5">
      <feOffset dx="5" dy="5" in="SourceAlpha" result="shadowOffsetInner" />
      <feGaussianBlur stdDeviation="3.5" in="shadowOffsetInner" result="shadowGaussian" />
      <feComposite in2="shadowGaussian" operator="atop" in="SourceAlpha" result="shadowComposite" />
      <feColorMatrix type="matrix" values="0 0 0 0 0.843137254901961  0 0 0 0 0.843137254901961  0 0 0 0 0.843137254901961  0 0 0 0.313725490196078 0  " in="shadowComposite" />
    </filter>
    <g id="widget6">
      <path d="M 1539 97.2444444444444  C 1539 97.2444444444444  1539 46  1539 46  C 1539 44.8954305003384  1539.89543050034 44  1541 44  C 1541 44  1617 44  1617 44  C 1618.10456949966 44  1619 44.8954305003384  1619 46  C 1619 46  1619 97.2444444444444  1619 97.2444444444444  C 1619 98.349013944106  1618.10456949966 99.2444444444444  1617 99.2444444444444  C 1617 99.2444444444444  1590.14233947536 99.2444444444444  1590.14233947536 99.2444444444444  C 1590.14233947536 99.2444444444444  1581.31437074379 104.941027312565  1581.31437074379 104.941027312565  C 1581.31437074379 104.941027312565  1570.68811208542 99.2444444444444  1570.68811208542 99.2444444444444  C 1570.68811208542 99.2444444444444  1541 99.2444444444444  1541 99.2444444444444  C 1539.89543050034 99.2444444444444  1539 98.349013944106  1539 97.2444444444444  Z " fill-rule="nonzero" fill="#ffffff" stroke="none" />
      <path d="M 1538 97.2444444444444  C 1538 97.2444444444444  1538 46  1538 46  C 1538 44.3431457505076  1539.34314575051 43  1541 43  C 1541 43  1617 43  1617 43  C 1618.65685424949 43  1620 44.3431457505076  1620 46  C 1620 46  1620 97.2444444444444  1620 97.2444444444444  C 1620 98.9012986939368  1618.65685424949 100.244444444444  1617 100.244444444444  C 1617 100.244444444444  1590.43697478992 100.244444444444  1590.43697478992 100.244444444444  C 1590.43697478992 100.244444444444  1581.36134453782 106.100840336134  1581.36134453782 106.100840336134  C 1581.36134453782 106.100840336134  1570.43697478992 100.244444444444  1570.43697478992 100.244444444444  C 1570.43697478992 100.244444444444  1541 100.244444444444  1541 100.244444444444  C 1539.34314575051 100.244444444444  1538 98.9012986939368  1538 97.2444444444444  Z M 1539 97.2444444444444  C 1539 98.349013944106  1539.89543050034 99.2444444444444  1541 99.2444444444444  C 1541 99.2444444444444  1570.68811208542 99.2444444444444  1570.68811208542 99.2444444444444  C 1570.68811208542 99.2444444444444  1581.31437074379 104.941027312565  1581.31437074379 104.941027312565  C 1581.31437074379 104.941027312565  1590.14233947536 99.2444444444444  1590.14233947536 99.2444444444444  C 1590.14233947536 99.2444444444444  1617 99.2444444444444  1617 99.2444444444444  C 1618.10456949966 99.2444444444444  1619 98.349013944106  1619 97.2444444444444  C 1619 97.2444444444444  1619 46  1619 46  C 1619 44.8954305003384  1618.10456949966 44  1617 44  C 1617 44  1541 44  1541 44  C 1539.89543050034 44  1539 44.8954305003384  1539 46  C 1539 46  1539 97.2444444444444  1539 97.2444444444444  Z " fill-rule="nonzero" fill="#d7d7d7" stroke="none" fill-opacity="0.674509803921569" />
    </g>
  </defs>
  <g transform="matrix(1 0 0 1 -1536 -41 )">
    <use xlink:href="#widget6" filter="url(#filter5)" />
    <use xlink:href="#widget6" />
  </g>
</svg>