<?xml version="1.0" encoding="utf-8"?>
<svg version="1.1" xmlns:xlink="http://www.w3.org/1999/xlink" width="119px" height="58px" xmlns="http://www.w3.org/2000/svg">
  <defs>
    <filter x="1665px" y="42px" width="119px" height="58px" filterUnits="userSpaceOnUse" id="filter19">
      <feOffset dx="5" dy="5" in="SourceAlpha" result="shadowOffsetInner" />
      <feGaussianBlur stdDeviation="3.5" in="shadowOffsetInner" result="shadowGaussian" />
      <feComposite in2="shadowGaussian" operator="atop" in="SourceAlpha" result="shadowComposite" />
      <feColorMatrix type="matrix" values="0 0 0 0 0.843137254901961  0 0 0 0 0.843137254901961  0 0 0 0 0.843137254901961  0 0 0 0.313725490196078 0  " in="shadowComposite" />
    </filter>
    <g id="widget20">
      <path d="M 1668 80.3555555555555  C 1668 80.3555555555555  1668 47  1668 47  C 1668 45.8954305003384  1668.89543050034 45  1670 45  C 1670 45  1769 45  1769 45  C 1770.10456949966 45  1771 45.8954305003384  1771 47  C 1771 47  1771 80.3555555555555  1771 80.3555555555555  C 1771 81.4601250552171  1770.10456949966 82.3555555555555  1769 82.3555555555555  C 1769 82.3555555555555  1731.12249312127 82.3555555555555  1731.12249312127 82.3555555555555  C 1731.12249312127 82.3555555555555  1722.47896430895 86.3029007288963  1722.47896430895 86.3029007288963  C 1722.47896430895 86.3029007288963  1711.51455306533 82.3555555555555  1711.51455306533 82.3555555555555  C 1711.51455306533 82.3555555555555  1670 82.3555555555555  1670 82.3555555555555  C 1668.89543050034 82.3555555555555  1668 81.4601250552171  1668 80.3555555555555  Z " fill-rule="nonzero" fill="#ffffff" stroke="none" />
      <path d="M 1667 80.3555555555556  C 1667 80.3555555555556  1667 47  1667 47  C 1667 45.3431457505076  1668.34314575051 44  1670 44  C 1670 44  1769 44  1769 44  C 1770.65685424949 44  1772 45.3431457505076  1772 47  C 1772 47  1772 80.3555555555555  1772 80.3555555555555  C 1772 82.0124098050479  1770.65685424949 83.3555555555555  1769 83.3555555555555  C 1769 83.3555555555555  1731.3400286944 83.3555555555555  1731.3400286944 83.3555555555555  C 1731.3400286944 83.3555555555555  1722.52367288379 87.3818277310924  1722.52367288379 87.3818277310924  C 1722.52367288379 87.3818277310924  1711.3400286944 83.3555555555555  1711.3400286944 83.3555555555555  C 1711.3400286944 83.3555555555555  1670 83.3555555555555  1670 83.3555555555555  C 1668.34314575051 83.3555555555555  1667 82.0124098050479  1667 80.3555555555556  Z M 1668 80.3555555555555  C 1668 81.4601250552171  1668.89543050034 82.3555555555555  1670 82.3555555555555  C 1670 82.3555555555555  1711.51455306533 82.3555555555555  1711.51455306533 82.3555555555555  C 1711.51455306533 82.3555555555555  1722.47896430895 86.3029007288963  1722.47896430895 86.3029007288963  C 1722.47896430895 86.3029007288963  1731.12249312127 82.3555555555555  1731.12249312127 82.3555555555555  C 1731.12249312127 82.3555555555555  1769 82.3555555555555  1769 82.3555555555555  C 1770.10456949966 82.3555555555555  1771 81.4601250552171  1771 80.3555555555555  C 1771 80.3555555555555  1771 47  1771 47  C 1771 45.8954305003384  1770.10456949966 45  1769 45  C 1769 45  1670 45  1670 45  C 1668.89543050034 45  1668 45.8954305003384  1668 47  C 1668 47  1668 80.3555555555555  1668 80.3555555555555  Z " fill-rule="nonzero" fill="#d7d7d7" stroke="none" fill-opacity="0.674509803921569" />
    </g>
  </defs>
  <g transform="matrix(1 0 0 1 -1665 -42 )">
    <use xlink:href="#widget20" filter="url(#filter19)" />
    <use xlink:href="#widget20" />
  </g>
</svg>