<svg t="1757228064273" class="icon" viewBox="0 0 1024 1024" version="1.1" xmlns="http://www.w3.org/2000/svg" p-id="2440" width="16" height="16"><path d="M513.12 11.136c-42.784 0-84.336 5.376-123.872 15.456-2.352 0.56-4.816 1.232-7.168 1.904-9.296 2.464-18.48 5.264-27.552 8.288-1.12 0.336-2.24 0.784-3.472 1.12-5.264 1.792-10.64 3.696-15.792 5.712-1.904 0.672-3.808 1.456-5.712 2.24-13.216 5.264-26.208 10.976-38.976 17.36l-5.376 2.688c-19.824 10.192-38.864 21.504-57.008 34.16-1.68 1.12-3.248 2.352-4.928 3.472-16.352 11.648-32.032 24.192-46.816 37.744l-4.368 4.032a465.472 465.472 0 0 0-29.568 29.904c-1.344 1.456-2.688 3.024-4.032 4.48-78.4 88.256-126 204.624-126 332.08 0 276.528 224.112 500.64 500.64 500.64s500.64-224.112 500.64-500.64-224.112-500.64-500.64-500.64zM810.144 808.8c-38.64 38.64-83.552 68.88-133.504 90.048-51.184 21.616-105.504 32.704-161.616 32.928v-840c56.112 0.224 110.432 11.312 161.616 32.928 50.064 21.168 94.976 51.408 133.504 90.048 38.64 38.64 68.88 83.552 90.048 133.504 21.84 51.744 32.928 106.736 32.928 163.52s-11.088 111.776-32.928 163.52c-21.168 49.952-51.408 94.864-90.048 133.504z" p-id="2441"></path></svg>