<?xml version="1.0" encoding="utf-8"?>
<svg version="1.1" xmlns:xlink="http://www.w3.org/1999/xlink" width="563px" height="364px" xmlns="http://www.w3.org/2000/svg">
  <g transform="matrix(1 0 0 1 -18 -97 )">
    <path d="M 19 102  A 4 4 0 0 1 23 98 L 576 98  A 4 4 0 0 1 580 102 L 580 456  A 4 4 0 0 1 576 460 L 23 460  A 4 4 0 0 1 19 456 L 19 102  Z " fill-rule="nonzero" fill="#ffffff" stroke="none" />
    <path d="M 18.5 102  A 4.5 4.5 0 0 1 23 97.5 L 576 97.5  A 4.5 4.5 0 0 1 580.5 102 L 580.5 456  A 4.5 4.5 0 0 1 576 460.5 L 23 460.5  A 4.5 4.5 0 0 1 18.5 456 L 18.5 102  Z " stroke-width="1" stroke="#d7d7d7" fill="none" stroke-opacity="0.701960784313725" />
  </g>
</svg>