<svg t="1756968228497" class="icon" viewBox="0 0 1024 1024" version="1.1" xmlns="http://www.w3.org/2000/svg" p-id="10014" width="32" height="32"><path d="M125.586286 226.011429a44.617143 44.617143 0 0 1 45.421714 39.936l0.146286 3.218285v498.834286c0 23.844571-20.406857 43.154286-45.568 43.154286a44.617143 44.617143 0 0 1-45.348572-39.936l-0.146285-3.218286V269.165714c0-23.844571 20.406857-43.154286 45.494857-43.154285z m438.198857 41.252571a41.545143 41.545143 0 0 1 1.901714 58.294857l-2.706286 2.706286L403.529143 475.428571h508.781714c25.088 0 45.494857 19.309714 45.494857 43.154286a44.178286 44.178286 0 0 1-42.130285 43.008l-3.364572 0.146286-500.297143-0.073143 150.966857 139.410286 2.706286 2.706285c15.286857 16.822857 14.774857 42.130286-1.901714 58.368a47.323429 47.323429 0 0 1-64.365714 0.731429L267.849143 549.083429l-2.633143-2.706286a41.618286 41.618286 0 0 1-10.971429-31.744 41.545143 41.545143 0 0 1 10.971429-31.597714l2.633143-2.706286 231.570286-213.869714a47.323429 47.323429 0 0 1 64.365714 0.804571z" fill="#8a8a8a" p-id="10015"></path></svg>