<svg t="1756968236025" class="icon" viewBox="0 0 1024 1024" version="1.1" xmlns="http://www.w3.org/2000/svg" p-id="10220" width="32" height="32"><path d="M898.413714 797.988571a44.617143 44.617143 0 0 1-45.421714-39.936l-0.146286-3.218285 0-498.834286c0-23.844571 20.406857-43.154286 45.568-43.154286a44.617143 44.617143 0 0 1 45.348572 39.936l0.146285 3.218286L943.908571 754.834286c0 23.844571-20.406857 43.154286-45.494857 43.154285z m-438.198857-41.252571a41.545143 41.545143 0 0 1-1.901714-58.294857l2.706286-2.706286L620.470857 548.571429l-508.781714 0c-25.08800001 0-45.494857-19.309714-45.49485701-43.154286a44.178286 44.178286 0 0 1 42.13028502-43.008l3.36457199-0.146286 500.29714301 0.073143-150.96685701-139.410286-2.706286-2.706285c-15.286857-16.822857-14.774857-42.130286 1.901714-58.368a47.323429 47.323429 0 0 1 64.365714-0.731429L756.150857 474.916571l2.633143 2.706286a41.618286 41.618286 0 0 1 10.97142899 31.744 41.545143 41.545143 0 0 1-10.97142899 31.597714l-2.633143 2.706286-231.570286 213.86971401a47.323429 47.323429 0 0 1-64.365714-0.80457101z" fill="#8a8a8a" p-id="10221"></path></svg>