<svg t="1756968277957" class="icon" viewBox="0 0 1024 1024" version="1.1" xmlns="http://www.w3.org/2000/svg" p-id="12547" width="32" height="32"><path d="M674.048 932.736a31.104 31.104 0 0 1-22.016-53.184l296.896-296.704a31.168 31.168 0 1 1 44.032 44.032l-296.896 296.704a31.104 31.104 0 0 1-22.016 9.152z" p-id="12548" fill="#8a8a8a"></path><path d="M674.112 939.136a37.504 37.504 0 0 1-26.496-64l296.896-296.704a37.568 37.568 0 0 1 53.056 53.12l-296.96 296.832a37.76 37.76 0 0 1-26.496 10.752z m296.832-358.976a24.576 24.576 0 0 0-17.472 7.232l-296.896 296.704a24.704 24.704 0 0 0 17.472 42.24 24.832 24.832 0 0 0 17.472-7.232l296.896-296.704a24.768 24.768 0 0 0-17.472-42.24z" p-id="12549" fill="#8a8a8a"></path><path d="M970.944 932.736a31.104 31.104 0 0 1-22.016-9.088l-296.896-296.704a31.168 31.168 0 0 1 44.032-44.032l296.896 296.704a31.168 31.168 0 0 1-22.016 53.184z" p-id="12550" fill="#8a8a8a"></path><path d="M970.944 939.136a37.76 37.76 0 0 1-26.496-11.008l-296.896-296.704a37.568 37.568 0 0 1 53.056-53.12l296.896 296.704a37.568 37.568 0 0 1-26.56 64z m-296.896-358.976a24.768 24.768 0 0 0-17.472 42.24l296.896 296.704a24.832 24.832 0 0 0 17.472 7.232 24.768 24.768 0 0 0 17.472-42.24l-296.896-296.704a24.576 24.576 0 0 0-17.472-7.168z" p-id="12551" fill="#8a8a8a"></path><path d="M550.4 932.736H302.72a59.904 59.904 0 0 1-59.904-59.904V357.44a59.904 59.904 0 0 1 59.904-59.904h628.608a59.904 59.904 0 0 1 59.904 59.904V487.04a31.168 31.168 0 1 1-62.272 0V359.68H305.152v510.592h245.568a31.168 31.168 0 1 1 0 62.272z" p-id="12552" fill="#8a8a8a"></path><path d="M550.4 939.136H302.72a66.368 66.368 0 0 1-66.304-66.304V357.44A66.368 66.368 0 0 1 302.72 291.136h628.608a66.368 66.368 0 0 1 66.304 66.304V487.04a37.568 37.568 0 1 1-75.072 0V366.08H311.552v497.792h239.168a37.568 37.568 0 1 1 0 75.072zM302.72 304a53.568 53.568 0 0 0-53.504 53.504v515.392a53.568 53.568 0 0 0 53.504 53.504h247.936a24.768 24.768 0 1 0 0-49.472H298.688V353.536h636.608v133.76a24.768 24.768 0 1 0 49.472 0V357.504a53.568 53.568 0 0 0-53.504-53.504z" p-id="12553" fill="#8a8a8a"></path><path d="M165.696 729.6H84.544a59.904 59.904 0 0 1-59.904-59.904V154.368a59.904 59.904 0 0 1 59.904-59.904h628.608a59.904 59.904 0 0 1 59.904 59.904v69.184a31.168 31.168 0 1 1-62.272 0V156.736H86.976v510.592h78.72a31.168 31.168 0 1 1 0 62.272z" p-id="12554" fill="#8a8a8a"></path><path d="M165.696 736H84.544a66.368 66.368 0 0 1-66.304-66.304V154.368a66.368 66.368 0 0 1 66.304-66.304h628.608a66.368 66.368 0 0 1 66.304 66.304v69.184a37.568 37.568 0 1 1-75.072 0v-60.416H93.376v497.792h72.32a37.568 37.568 0 0 1 0 75.072zM84.544 100.864a53.568 53.568 0 0 0-53.504 53.504v515.328a53.568 53.568 0 0 0 53.504 53.504h81.152a24.768 24.768 0 0 0 0-49.472H80.512V150.336h636.608v73.216a24.768 24.768 0 0 0 49.472 0V154.368a53.568 53.568 0 0 0-53.504-53.504z" p-id="12555" fill="#8a8a8a"></path></svg>